<?xml version="1.0" encoding="UTF-8" standalone="no"?>
<!-- Created with Inkscape (http://www.inkscape.org/) -->

<svg
   xmlns:dc="http://purl.org/dc/elements/1.1/"
   xmlns:cc="http://creativecommons.org/ns#"
   xmlns:rdf="http://www.w3.org/1999/02/22-rdf-syntax-ns#"
   xmlns:svg="http://www.w3.org/2000/svg"
   xmlns="http://www.w3.org/2000/svg"
   xmlns:sodipodi="http://sodipodi.sourceforge.net/DTD/sodipodi-0.dtd"
   xmlns:inkscape="http://www.inkscape.org/namespaces/inkscape"
   width="609"
   height="448"
   id="svg2"
   sodipodi:version="0.32"
   inkscape:version="0.48.2 r9819"
   version="1.0"
   sodipodi:docname="img24.svg"
   inkscape:output_extension="org.inkscape.output.svg.inkscape">
  <defs
     id="defs4" />
  <sodipodi:namedview
     id="base"
     pagecolor="#ffffff"
     bordercolor="#666666"
     borderopacity="1.0"
     gridtolerance="10000"
     guidetolerance="10"
     objecttolerance="10"
     inkscape:pageopacity="0.0"
     inkscape:pageshadow="2"
     inkscape:zoom="0.9899495"
     inkscape:cx="186.16241"
     inkscape:cy="262.97"
     inkscape:document-units="px"
     inkscape:current-layer="layer1"
     width="1052.3622px"
     height="744.09449px"
     borderlayer="false"
     inkscape:window-width="1366"
     inkscape:window-height="688"
     inkscape:window-x="0"
     inkscape:window-y="25"
     showgrid="false"
     fit-margin-top="0"
     fit-margin-left="0"
     fit-margin-right="0"
     fit-margin-bottom="0"
     inkscape:window-maximized="1" />
  <metadata
     id="metadata7">
    <rdf:RDF>
      <cc:Work
         rdf:about="">
        <dc:format>image/svg+xml</dc:format>
        <dc:type
           rdf:resource="http://purl.org/dc/dcmitype/StillImage" />
      </cc:Work>
    </rdf:RDF>
  </metadata>
  <g
     inkscape:label="Layer 1"
     inkscape:groupmode="layer"
     id="layer1"
     transform="translate(-17.142853,-227.52307)">
    <rect
       style="opacity:0.95999995;fill:#e9afdd;fill-opacity:1"
       id="rect2376"
       width="560.84528"
       height="59.97031"
       x="38.356056"
       y="253.29459"
       ry="0" />
    <path
       sodipodi:type="arc"
       style="opacity:0.95999995;fill:#e9ddaf;fill-opacity:1"
       id="path2422"
       sodipodi:cx="972.85712"
       sodipodi:cy="341.23734"
       sodipodi:rx="7.1428571"
       sodipodi:ry="0" />
    <path
       sodipodi:type="arc"
       style="opacity:0.95999995;fill:#e9ddaf;fill-opacity:1"
       id="path2424"
       sodipodi:cx="862.85712"
       sodipodi:cy="269.80878"
       sodipodi:rx="17.142857"
       sodipodi:ry="0" />
    <rect
       style="opacity:0.95999995;fill:#d5ffe6;fill-opacity:1"
       id="rect3064"
       width="0"
       height="25.714285"
       x="777.14288"
       y="541.23737" />
    <path
       sodipodi:type="arc"
       style="opacity:0.95999995;fill:#f4d7ee;fill-opacity:1"
       id="path3068"
       sodipodi:cx="801.42859"
       sodipodi:cy="408.38019"
       sodipodi:rx="238.57143"
       sodipodi:ry="187.14287"
       d="m 1040,408.38019 a 238.57143,187.14287 0 1 1 -477.14284,0 238.57143,187.14287 0 1 1 477.14284,0 z"
       transform="matrix(0.55450809,0,0,0.63604876,28.850206,221.6138)" />
    <path
       sodipodi:type="arc"
       style="opacity:0.95999995;fill:#f4d7ee;fill-opacity:1"
       id="path3070"
       sodipodi:cx="267.14285"
       sodipodi:cy="408.38019"
       sodipodi:rx="250"
       sodipodi:ry="187.14285"
       d="m 517.14285,408.38019 a 250,187.14285 0 1 1 -499.999997,0 250,187.14285 0 1 1 499.999997,0 z"
       transform="matrix(0.55450809,0,0,0.63604876,28.850206,221.6138)" />
    <path
       sodipodi:type="arc"
       style="opacity:0.95999995;fill:#f4d7ee;fill-opacity:1"
       id="path3120"
       sodipodi:cx="84.285713"
       sodipodi:cy="591.23737"
       sodipodi:rx="32.857143"
       sodipodi:ry="12.857142"
       d="m 117.14286,591.23737 a 32.857143,12.857142 0 1 1 -65.71429,0 32.857143,12.857142 0 1 1 65.71429,0 z"
       transform="matrix(0.55450809,0,0,0.63604876,28.850206,221.6138)" />
    <path
       sodipodi:type="arc"
       style="opacity:0.95999995;fill:#f4d7ee;fill-opacity:1"
       id="path3122"
       sodipodi:cx="151.42857"
       sodipodi:cy="632.66589"
       sodipodi:rx="28.571428"
       sodipodi:ry="11.428572"
       d="m 180,632.66589 a 28.571428,11.428572 0 1 1 -57.14285,0 28.571428,11.428572 0 1 1 57.14285,0 z"
       transform="matrix(0.55450809,0,0,0.63604876,28.850206,221.6138)" />
    <path
       sodipodi:type="arc"
       style="opacity:0.95999995;fill:#f4d7ee;fill-opacity:1"
       id="path3124"
       sodipodi:cx="234.28572"
       sodipodi:cy="664.09448"
       sodipodi:rx="22.857143"
       sodipodi:ry="11.428572"
       d="m 257.14286,664.09448 a 22.857143,11.428572 0 1 1 -45.71428,0 22.857143,11.428572 0 1 1 45.71428,0 z"
       transform="matrix(0.55450809,0,0,0.63604876,28.850206,221.6138)" />
    <path
       sodipodi:type="arc"
       style="opacity:0.95999995;fill:#f4d7ee;fill-opacity:1"
       id="path3126"
       sodipodi:cx="1014.2857"
       sodipodi:cy="565.52307"
       sodipodi:rx="25.714285"
       sodipodi:ry="15.714286"
       d="m 1040,565.52307 a 25.714285,15.714286 0 1 1 -51.42858,0 25.714285,15.714286 0 1 1 51.42858,0 z"
       transform="matrix(0.55450809,0,0,0.63604876,28.850206,221.6138)" />
    <path
       sodipodi:type="arc"
       style="opacity:0.95999995;fill:#f4d7ee;fill-opacity:1"
       id="path3130"
       sodipodi:cx="980"
       sodipodi:cy="618.38019"
       sodipodi:rx="22.857143"
       sodipodi:ry="14.285714"
       d="m 1002.8571,618.38019 a 22.857143,14.285714 0 1 1 -45.71424,0 22.857143,14.285714 0 1 1 45.71424,0 z"
       transform="matrix(0.55450809,0,0,0.63604876,28.850206,221.6138)" />
    <path
       sodipodi:type="arc"
       style="opacity:0.95999995;fill:#f4d7ee;fill-opacity:1"
       id="path3132"
       sodipodi:cx="897.14288"
       sodipodi:cy="656.9516"
       sodipodi:rx="28.571428"
       sodipodi:ry="12.857142"
       d="m 925.71431,656.9516 a 28.571428,12.857142 0 1 1 -57.14285,0 28.571428,12.857142 0 1 1 57.14285,0 z"
       transform="matrix(0.55450809,0,0,0.63604876,28.850206,221.6138)" />
    <text
       xml:space="preserve"
       style="font-size:9.90932178px;font-style:normal;font-weight:normal;line-height:125%;letter-spacing:0px;word-spacing:0px;fill:#000000;fill-opacity:1;stroke:none;font-family:Bitstream Vera Sans"
       x="51.089432"
       y="252.74911"
       id="text3010"
       sodipodi:linespacing="125%"
       transform="scale(0.93370296,1.0710044)"><tspan
         sodipodi:role="line"
         id="tspan3012"
         x="51.089432"
         y="252.74911">1</tspan></text>
    <text
       xml:space="preserve"
       style="font-size:9.90932178px;font-style:normal;font-weight:normal;line-height:125%;letter-spacing:0px;word-spacing:0px;fill:#000000;fill-opacity:1;stroke:none;font-family:Bitstream Vera Sans"
       x="61.724976"
       y="413.53357"
       id="text3014"
       sodipodi:linespacing="125%"
       transform="scale(0.93370296,1.0710044)"><tspan
         sodipodi:role="line"
         id="tspan3016"
         x="61.724976"
         y="413.53357">2</tspan></text>
    <text
       xml:space="preserve"
       style="font-size:9.90932178px;font-style:normal;font-weight:normal;line-height:125%;letter-spacing:0px;word-spacing:0px;fill:#000000;fill-opacity:1;stroke:none;font-family:Bitstream Vera Sans"
       x="345.13104"
       y="528.64771"
       id="text3018"
       sodipodi:linespacing="125%"
       transform="scale(0.93370296,1.0710044)"><tspan
         sodipodi:role="line"
         id="tspan3020"
         x="345.13104"
         y="528.64771">4</tspan></text>
    <text
       xml:space="preserve"
       style="font-size:9.90932178px;font-style:normal;font-weight:normal;line-height:125%;letter-spacing:0px;word-spacing:0px;fill:#000000;fill-opacity:1;stroke:none;font-family:Bitstream Vera Sans"
       x="401.43686"
       y="404.7749"
       id="text3022"
       sodipodi:linespacing="125%"
       transform="scale(0.93370296,1.0710044)"><tspan
         sodipodi:role="line"
         id="tspan3024"
         x="401.43686"
         y="404.7749">3</tspan></text>
  </g>
</svg>
